# xmcd CD database file
#
# Track frame offsets:
#	150
#	17669
#	35975
#	54532
#	66233
#	82302
#	99158
#	116082
#	136807
#	155123
#	169560
#	186714
#	203580
#	217969
#	238665
#	254888
#	269353
#	293074
#	309168
#	327355
#
# Disc length: 4588 seconds
#
# Revision: 2
# Processed by: cddbd v1.4PL0 Copyright (c) Steve Scherf et al.
# Submitted via: CDex 1.50beta9
#
DISCID=3111ea14
DTITLE=fevereiro 22 - fevereiro 22
DYEAR=2003
DGENRE=vários
TTITLE0=belo - vicio
TTITLE1=regis raz - monaliza
TTITLE2=ed motta - tem espaso na vam
TTITLE3=luka - to nem aì
TTITLE4=vavá - chamada á cobrar
TTITLE5=os travessos - alô
TTITLE6=miotinho - balanço do buzão
TTITLE7=os moleques - uma chance
TTITLE8=alexantre piris - vem me amar
TTITLE9=temta samba - oi amor
TTITLE10=mente souta - ex namorada
TTITLE11=nascente - acabou o amor
TTITLE12=pra pagodear - dillema
TTITLE13=jorge aragão - espelhos d'água
TTITLE14=kelly key - adoleta
TTITLE15=calipso - dancando calipso
TTITLE16=buchecha - cástigo
TTITLE17=gustavo lins - escondida
TTITLE18=magnificos - o emcamto
TTITLE19=magnificos - sonho lindo
EXTD=YEAR: 2003
EXTT0=
EXTT1=
EXTT2=
EXTT3=
EXTT4=
EXTT5=
EXTT6=
EXTT7=
EXTT8=
EXTT9=
EXTT10=
EXTT11=
EXTT12=
EXTT13=
EXTT14=
EXTT15=
EXTT16=
EXTT17=
EXTT18=
EXTT19=
PLAYORDER=
